<?xml version="1.0" encoding="UTF-8"?>
<svg version="1.1" xmlns="http://www.w3.org/2000/svg" width="622" height="365">
<path d="M0 0 C205.26 0 410.52 0 622 0 C622 120.45 622 240.9 622 365 C416.74 365 211.48 365 0 365 C0 244.55 0 124.1 0 0 Z " fill="#101628" transform="translate(0,0)"/>
<path d="M0 0 C5.05679891 3.4692893 9.15609503 7.65797067 12.55078125 12.75 C12.85185242 15.22087097 12.85185242 15.22087097 12.9206543 18.19604492 C12.94955246 19.31117966 12.97845062 20.42631439 13.00822449 21.57524109 C13.02613541 22.78146622 13.04404633 23.98769135 13.0625 25.23046875 C13.08101517 26.47242508 13.09953033 27.71438141 13.11860657 28.99397278 C13.15067885 31.62609878 13.1768285 34.25770122 13.19604492 36.88989258 C13.21820815 39.58049252 13.26683644 42.26855216 13.33959961 44.95825195 C13.43718608 48.84142983 13.4751033 52.72122303 13.5 56.60546875 C13.54017746 57.80157272 13.58035492 58.9976767 13.62174988 60.23002625 C13.5800854 68.38816298 13.5800854 68.38816298 10.66738892 72.24185181 C-0.34507426 82.32645846 -13.48086303 86.19085647 -28.11328125 86.0234375 C-40.94988738 84.97125667 -52.35053121 77.0102666 -60.5078125 67.4375 C-63.58541224 63.17716072 -65.63866677 58.66539412 -67.44921875 53.75 C-67.81402344 52.8734375 -68.17882812 51.996875 -68.5546875 51.09375 C-69.81642222 46.37739663 -69.81764848 41.86199751 -69.82421875 37 C-69.84871094 36.0615625 -69.87320313 35.123125 -69.8984375 34.15625 C-69.94674167 22.49884443 -65.3738703 14.09542951 -57.44921875 5.75 C-40.78316483 -9.46177347 -19.59278386 -11.34169832 0 0 Z " fill="#101526" transform="translate(126.44921875,108.25)"/>
<path d="M0 0 C0.99 0 1.98 0 3 0 C3.33 6.27 3.66 12.54 4 19 C5.093125 17.948125 6.18625 16.89625 7.3125 15.8125 C16.44671255 7.99679117 24.97425796 6.04848286 36.73828125 6.578125 C43.73168618 7.12446078 50.35982738 9.44232077 55.62109375 14.25390625 C63.30651196 23.98586643 64.13369948 33.99292218 64.24609375 45.87109375 C64.27905839 48.24414395 64.31226955 50.61719074 64.34570312 52.99023438 C64.39285295 56.70236662 64.43725482 60.41448775 64.47680664 64.12670898 C63.7992313 97.77644813 63.7992313 97.77644813 77.33203125 127.4921875 C87.36452666 136.56137539 97.76126376 139.68832557 110.98046875 139.3046875 C115.6117054 139.04684563 119.92502302 138.02606738 124.3515625 136.65625 C127.31449252 135.92207265 129.95908098 135.89298819 133 136 C132.9375 138.3125 132.9375 138.3125 132 141 C120.42924811 146.99964913 103.21358217 147.34645534 90.640625 144.09375 C87.55890635 142.9436349 84.83036171 141.66907445 82 140 C81.20464844 139.55398437 80.40929687 139.10796875 79.58984375 138.6484375 C67.33774273 131.12484888 58.96348585 120.97935156 53 108 C48.14712932 109.573904 43.36794839 111.32282028 38.5859375 113.09765625 C29.67705547 116.20634469 20.65705351 115.87979591 12 112 C5.24279032 107.97187339 0.74496504 102.86576925 -3 96 C-3.3403125 95.38640625 -3.680625 94.7728125 -4.03125 94.140625 C-7.47974876 86.66887769 -7.1404278 76.98668539 -4.9375 69.1875 C-0.32231589 57.53036831 9.32430176 50.54732601 20.1328125 45.19921875 C29.15884543 41.42402514 40.28039662 41.72564305 49.328125 45.24609375 C50.56463985 45.80368105 51.78678194 46.39339097 53 47 C52.67057636 32.01740538 52.67057636 32.01740538 46 19 C46 18.34 46 17.68 46 17 C39.29934383 13.37047791 32.69510313 10.56789804 24.99609375 12.50390625 C17.81499142 14.88852277 13.14405332 18.88046459 9.72851562 25.57226562 C9.40560547 26.24966797 9.08269531 26.92707031 8.75 27.625 C8.40646484 28.32560547 8.06292969 29.02621094 7.70898438 29.74804688 C5.06979877 35.34926992 3.52503959 40.80453279 3 47 C2.01 47 1.02 47 0 47 C0 31.49 0 15.98 0 0 Z " fill="#C09F5E" transform="translate(403,87)"/>
<path d="M0 0 C1.32 0 2.64 0 4 0 C4.33 5.94 4.66 11.88 5 18 C6.629375 16.741875 8.25875 15.48375 9.9375 14.1875 C20.43127492 6.65384964 30.02407946 5.61558654 42.87109375 7.3984375 C49.63242314 9.02284425 54.53336533 12.7311942 59 18 C62.50119826 23.89980921 64.15692472 29.6365574 64.03417969 36.47680664 C64.0179657 37.57638199 64.00175171 38.67595734 63.98504639 39.80885315 C63.95377655 41.59149818 63.95377655 41.59149818 63.921875 43.41015625 C63.89457373 45.95376283 63.86857616 48.49738368 63.84375 51.04101562 C63.8008715 55.02993432 63.75082246 59.01761774 63.67773438 63.00610352 C63.31074801 83.9544714 63.14348365 104.4406338 77.76953125 121.00390625 C85.05476865 128.10509555 97.44926316 134.26065065 107.75 134.3125 C112.36660673 134.23636406 116.18102821 133.13510854 120.52734375 131.66796875 C124.41929192 130.61658939 127.99009832 130.8059725 132 131 C131.62822012 133.6954041 131.22023106 134.79549973 129.1953125 136.67578125 C119.58035962 142.4755482 103.14885838 141.20758744 92.5625 138.875 C75.81975536 133.8544796 64.6417143 121.95126842 55 108 C50.61235453 108.57457262 47.03184786 109.69406814 43 111.5 C34.33054179 115.38319482 24.95896494 116.70772738 15.875 113.4375 C6.26577006 109.1768037 -0.04859936 101.6532198 -4.16796875 92.18359375 C-7.00041174 84.75009314 -7.19757839 76.38543852 -4.5 68.875 C0.67546179 57.66149946 9.35393421 50.0176381 20.48828125 44.84375 C30.72930292 41.40353121 42.10647707 41.90612844 52 46 C53.13178147 31.55813891 53.13178147 31.55813891 47 19 C42.48026489 14.35810989 36.92617226 12.433507 30.625 11.5 C23.21397465 12.52221039 16.84970913 16.02198372 12.30859375 22.00390625 C7.02049951 30.07022314 5.00709031 37.41009528 4 47 C2.68 47 1.36 47 0 47 C0 31.49 0 15.98 0 0 Z " fill="#BF9E5E" transform="translate(178,87)"/>
<path d="M0 0 C1.32 0.66 2.64 1.32 4 2 C2.84826645 4.46800047 1.95216435 6.04783565 0 8 C-0.2473995 10.50133692 -0.37110418 12.89826308 -0.40966797 15.4050293 C-0.42874332 16.17019426 -0.44781868 16.93535923 -0.46747208 17.72371101 C-0.52773813 20.27793454 -0.572934 22.83217088 -0.6171875 25.38671875 C-0.65478168 27.19146887 -0.69270048 28.99621225 -0.73092651 30.8009491 C-1.09992329 49.29567204 -1.15342667 67.79198372 -1.13037109 86.28979492 C-1.12458588 90.94792249 -1.12803437 95.60599348 -1.13394356 100.26411915 C-1.13759048 103.94921787 -1.13639328 107.63430354 -1.13381577 111.31940269 C-1.13316246 113.03696386 -1.13391686 114.75452631 -1.13629532 116.47208595 C-1.15299328 131.85039069 -1.04319754 147.39756288 1.3125 162.625 C1.41755859 163.41777344 1.52261719 164.21054688 1.63085938 165.02734375 C3.24549581 175.80923294 7.92481845 183.69947249 16 191 C27.19569196 199.25682282 37.97825292 203.63243379 52 202 C54.73197663 201.14254538 57.21542701 200.14033737 59.78125 198.875 C62.32430684 197.87210434 64.2902664 197.84733895 67 198 C67 199.32 67 200.64 67 202 C57.54715548 209.83894423 44.59815184 209.07643555 33 208 C21.67486717 205.98799794 11.61852236 199.46502485 4 191 C2.6078125 189.6078125 2.6078125 189.6078125 1.1875 188.1875 C-4.80463542 181.16814136 -8.73308312 171.56732285 -12 163 C-12.66644531 163.51949219 -13.33289063 164.03898438 -14.01953125 164.57421875 C-28.75475928 175.72353114 -42.72800836 179.59365352 -61 178 C-73.59513865 175.75997002 -84.98515985 169.00097378 -93 159 C-101.85536426 145.7773311 -103.65130018 131.60336043 -102 116 C-100.9248833 111.55140601 -99.30959572 107.93508334 -97 104 C-96.48050781 103.06027344 -95.96101563 102.12054688 -95.42578125 101.15234375 C-88.63057256 89.63692016 -79.71983314 82.26874796 -68 76 C-67.01515625 75.46890625 -66.0303125 74.9378125 -65.015625 74.390625 C-53.73707041 69.1896335 -39.23823398 69.00507651 -27.375 72.5625 C-22 75 -22 75 -11 82 C-11 62.2 -11 42.4 -11 22 C-11.66 22 -12.32 22 -13 22 C-13.26554687 22.58265625 -13.53109375 23.1653125 -13.8046875 23.765625 C-15.03302996 26.06174228 -16.40314939 27.80356018 -18.125 29.75 C-18.66382813 30.36359375 -19.20265625 30.9771875 -19.7578125 31.609375 C-20.16773438 32.06828125 -20.57765625 32.5271875 -21 33 C-22.485 32.505 -22.485 32.505 -24 32 C-23.12403168 27.44594964 -20.45280621 24.74400112 -17.4375 21.375 C-16.34247988 20.1261125 -15.24873508 18.87610567 -14.15625 17.625 C-13.34994141 16.70460938 -13.34994141 16.70460938 -12.52734375 15.765625 C-8.1351564 10.68821149 -4.00773429 5.38425093 0 0 Z M-83.875 93.875 C-93.55075631 105.62080995 -94.23249732 118.38268801 -93 133 C-92.13298531 137.69951711 -90.2950254 141.8228109 -88 146 C-87.33097656 147.2375 -87.33097656 147.2375 -86.6484375 148.5 C-79.95201661 159.57341108 -69.09602689 166.62171408 -56.96875 170.6796875 C-49.02840155 171.97156959 -40.65926839 171.39696529 -33 169 C-32.20078125 168.75507813 -31.4015625 168.51015625 -30.578125 168.2578125 C-22.82709886 165.5377319 -16.77425471 160.77425471 -11 155 C-10.64491993 152.56545987 -10.64491993 152.56545987 -10.63012695 149.69921875 C-10.58677971 148.03608643 -10.58677971 148.03608643 -10.54255676 146.33935547 C-10.52464584 145.13424316 -10.50673492 143.92913086 -10.48828125 142.6875 C-10.4605085 140.82955811 -10.4605085 140.82955811 -10.43217468 138.93408203 C-10.40007 136.304371 -10.37393081 133.67518702 -10.35473633 131.04541016 C-10.33262998 128.3616347 -10.28413069 125.68042589 -10.21118164 122.99755859 C-10.11333882 119.12260016 -10.07563446 115.25103613 -10.05078125 111.375 C-10.01060379 110.18608154 -9.97042633 108.99716309 -9.92903137 107.7722168 C-9.96999807 99.72888661 -11.88135572 95.73846484 -17.57023621 90.05297852 C-38.20982147 72.61398909 -65.44039092 74.20610823 -83.875 93.875 Z " fill="#C1A05E" transform="translate(150,23)"/>
<path d="M0 0 C3.10913231 2.57830484 5.27965966 4.76788186 7.5625 8.125 C7.875 11.5 7.875 11.5 7.5625 14.125 C1.20535714 13.63598901 1.20535714 13.63598901 -1.875 11.1875 C-3.4375 9.125 -3.4375 9.125 -3.4375 7.125 C-4.241875 6.7228125 -4.241875 6.7228125 -5.0625 6.3125 C-7.4375 5.125 -7.4375 5.125 -9.9375 3.5 C-16.24167617 1.02335936 -23.38060708 1.14792065 -29.8125 3.3125 C-41.66595992 8.70265359 -46.7540828 20.87131765 -51.27954102 32.37841797 C-51.62482377 33.25006025 -51.97010653 34.12170254 -52.32585239 35.01975822 C-55.87669264 44.08437049 -59.01565821 53.27301416 -62.08984375 62.5078125 C-62.68081722 64.26823883 -63.27234631 66.02847873 -63.86439514 67.7885437 C-65.39612039 72.3462714 -66.921306 76.90615742 -68.44470215 81.4666748 C-70.9046712 88.8265691 -73.37559399 96.18279628 -75.84521675 103.53945541 C-76.70286585 106.09709263 -77.55808317 108.65553229 -78.41282654 111.21414185 C-78.93265956 112.76663156 -79.45251988 114.31911214 -79.97241211 115.87158203 C-80.20871841 116.58102966 -80.44502472 117.29047729 -80.68849182 118.02142334 C-82.32426693 122.89853387 -82.32426693 122.89853387 -83.4375 125.125 C-84.7575 125.125 -86.0775 125.125 -87.4375 125.125 C-91.7275 112.585 -96.0175 100.045 -100.4375 87.125 C-102.84844712 92.54963103 -105.1515852 97.81834524 -107.234375 103.34765625 C-107.59212006 104.29408241 -107.59212006 104.29408241 -107.95709229 105.2596283 C-108.70301821 107.23466948 -109.44533069 109.21104455 -110.1875 111.1875 C-110.69897777 112.5437107 -111.21069476 113.8998312 -111.72265625 115.25585938 C-112.96369443 118.5445387 -114.20150075 121.83442304 -115.4375 125.125 C-116.7575 125.125 -118.0775 125.125 -119.4375 125.125 C-119.84923462 123.88194092 -119.84923462 123.88194092 -120.26928711 122.61376953 C-123.3241163 113.40000047 -126.39556447 104.19186679 -129.4765625 94.98681641 C-130.85177851 90.87805239 -132.2235753 86.76816264 -133.59375 82.65771484 C-135.47100028 77.02916762 -137.35845123 71.40411642 -139.2517395 65.78094482 C-139.99694741 63.5627937 -140.73906526 61.3436019 -141.47799683 59.12335205 C-142.52774936 55.97128247 -143.58878471 52.82321485 -144.65234375 49.67578125 C-144.96034912 48.74267624 -145.26835449 47.80957123 -145.58569336 46.84819031 C-149.65257809 34.76732452 -149.65257809 34.76732452 -158.4375 26.125 C-161.41023265 25.2577441 -164.38376269 24.63062971 -167.4375 24.125 C-167.4375 22.475 -167.4375 20.825 -167.4375 19.125 C-156.8775 19.125 -146.3175 19.125 -135.4375 19.125 C-135.4375 20.775 -135.4375 22.425 -135.4375 24.125 C-138.4075 24.125 -141.3775 24.125 -144.4375 24.125 C-144.09924194 25.13311234 -143.76098389 26.14122467 -143.41247559 27.17988586 C-140.2290883 36.66929686 -137.05042578 46.16027885 -133.87641144 55.65282917 C-132.24437324 60.53327172 -130.61066129 65.4131407 -128.97314453 70.29174805 C-127.39363729 74.99773202 -125.8185003 79.70515766 -124.24641418 84.41362572 C-123.6451285 86.21192928 -123.04225587 88.00970301 -122.43778992 89.80694008 C-121.59302189 92.31954515 -120.75385817 94.83395557 -119.91601562 97.34887695 C-119.66354568 98.09550095 -119.41107574 98.84212494 -119.1509552 99.6113739 C-118.16990619 102.57232972 -117.4375 104.98321544 -117.4375 108.125 C-116.7775 108.125 -116.1175 108.125 -115.4375 108.125 C-115.086875 106.866875 -114.73625 105.60875 -114.375 104.3125 C-113.30090252 100.64485008 -112.05486904 97.0956075 -110.64453125 93.546875 C-110.32427979 92.72807861 -110.00402832 91.90928223 -109.67407227 91.06567383 C-109.02792849 89.4262499 -108.36617493 87.79287273 -107.68725586 86.16674805 C-103.48992711 75.42714582 -107.37605163 66.24264017 -110.88305664 55.78637695 C-111.62271477 53.56934968 -112.33632098 51.34501981 -113.04882812 49.11914062 C-116.18002769 39.56569189 -119.6165936 30.77942718 -128.4375 25.125 C-131.12257329 24.33553391 -131.12257329 24.33553391 -133.4375 24.125 C-133.4375 22.475 -133.4375 20.825 -133.4375 19.125 C-123.8675 19.125 -114.2975 19.125 -104.4375 19.125 C-104.4375 20.775 -104.4375 22.425 -104.4375 24.125 C-107.0775 24.125 -109.7175 24.125 -112.4375 24.125 C-110.89312922 28.95006804 -109.34479676 33.77383927 -107.79272461 38.59643555 C-107.26493071 40.23833458 -106.73823489 41.880587 -106.21264648 43.52319336 C-105.45843028 45.87967472 -104.70031679 48.23487068 -103.94140625 50.58984375 C-103.70595596 51.32839096 -103.47050568 52.06693817 -103.22792053 52.8278656 C-102.3242563 56.24699411 -102.3242563 56.24699411 -100.4375 59.125 C-98.89132435 54.94642557 -97.38018556 50.75599619 -95.875 46.5625 C-95.43736328 45.38107422 -94.99972656 44.19964844 -94.54882812 42.98242188 C-94.13955078 41.83193359 -93.73027344 40.68144531 -93.30859375 39.49609375 C-92.92630615 38.44349365 -92.54401855 37.39089355 -92.15014648 36.30639648 C-91.32183764 32.60866009 -91.7031797 29.81694279 -92.4375 26.125 C-97.3875 25.135 -97.3875 25.135 -102.4375 24.125 C-102.4375 22.475 -102.4375 20.825 -102.4375 19.125 C-92.8675 19.125 -83.2975 19.125 -73.4375 19.125 C-73.4375 20.775 -73.4375 22.425 -73.4375 24.125 C-76.0775 24.125 -78.7175 24.125 -81.4375 24.125 C-81.5487471 24.67892929 -81.6599942 25.23285858 -81.77461243 25.80357361 C-82.90276048 31.1728931 -84.4006364 36.23458838 -86.29296875 41.37890625 C-86.83858211 42.90795656 -87.38348299 44.43726126 -87.92773438 45.96679688 C-88.77624871 48.33481819 -89.62979921 50.70058716 -90.49584961 53.06225586 C-91.3395117 55.37091125 -92.16139572 57.68643213 -92.98046875 60.00390625 C-93.24184128 60.69996475 -93.50321381 61.39602325 -93.77250671 62.11317444 C-96.18780448 69.04371915 -95.06500016 74.72623084 -92.87890625 81.69140625 C-92.57533203 82.67173828 -92.27175781 83.65207031 -91.95898438 84.66210938 C-91.48428711 86.15967773 -91.48428711 86.15967773 -91 87.6875 C-90.3758442 89.68865933 -89.75213533 91.68995811 -89.12890625 93.69140625 C-88.8364502 94.62484863 -88.54399414 95.55829102 -88.24267578 96.52001953 C-87.2570635 99.70876516 -86.33470671 102.91038501 -85.4375 106.125 C-83.47197013 103.17670519 -82.66303687 100.97991962 -81.66015625 97.61328125 C-81.14606201 95.912323 -81.14606201 95.912323 -80.62158203 94.17700195 C-80.25145996 92.94296631 -79.88133789 91.70893066 -79.5 90.4375 C-73.03883083 69.25139807 -66.20145099 48.18665165 -57.625 27.75 C-57.1933252 26.71721924 -56.76165039 25.68443848 -56.31689453 24.62036133 C-50.92342828 12.10417067 -45.3679179 2.08913597 -32.625 -3.8125 C-21.07551939 -8.1888402 -10.65279392 -5.81061486 0 0 Z " fill="#BD9C5D" transform="translate(427.4375,76.875)"/>
<path d="M0 0 C6.78411679 4.83726637 6.78411679 4.83726637 7.70507812 8.53431702 C7.91316383 10.90523638 7.96415239 13.2292917 7.953125 15.609375 C7.96265198 16.47591202 7.97217896 17.34244904 7.98199463 18.23524475 C7.99413116 20.06328376 7.9933479 21.8914485 7.98046875 23.71948242 C7.9687958 26.50858906 8.02102207 29.29163355 8.078125 32.08007812 C8.08201064 33.86067284 8.08213518 35.64128056 8.078125 37.421875 C8.09856873 38.25017319 8.11901245 39.07847137 8.14007568 39.93186951 C8.07100628 43.40193871 7.96128955 45.67837378 5.71032715 48.41775513 C-1.48314903 54.70215913 -7.77221442 56.29269334 -17.27734375 56.05078125 C-25.93965243 54.89194397 -31.73163572 49.32766229 -37.15625 42.8203125 C-43.13493692 34.58524614 -43.91302884 24.47136089 -42.78125 14.58203125 C-39.66718364 6.63024557 -32.71205165 1.17135368 -25.09375 -2.29296875 C-16.44101558 -5.11488214 -7.92677792 -4.2755737 0 0 Z " fill="#111829" transform="translate(448.78125,139.41796875)"/>
<path d="M0 0 C3.92897178 3.1993768 6.29228724 5.20210566 6.82397461 10.34960938 C6.88337273 12.01346798 6.90771807 13.67884018 6.90234375 15.34375 C6.91519913 16.23106812 6.9280545 17.11838623 6.94129944 18.03259277 C6.95846706 19.90169622 6.96007547 21.77100001 6.94702148 23.64013672 C6.93751984 26.49404124 7.0079798 29.33865208 7.08398438 32.19140625 C7.21974857 45.40845804 7.21974857 45.40845804 4.03125 49.56884766 C1.70338749 51.13977756 -0.34045575 52.12881544 -3 53 C-3.94875 53.45375 -4.8975 53.9075 -5.875 54.375 C-13.43164094 55.88632819 -21.21188281 55.97320351 -28 52 C-36.04188671 46.50562877 -40.69289311 39.24686336 -43.63671875 30 C-44.91810298 22.94549758 -44.9036226 15.93219805 -41.19140625 9.671875 C-32.08613773 -3.10535426 -13.71613959 -9.24294812 0 0 Z " fill="#101527" transform="translate(225,140)"/>
<path d="M0 0 C0.99 0.33 1.98 0.66 3 1 C1.125 4.875 1.125 4.875 0 6 C-0.12290718 7.65644366 -0.17783908 9.31798993 -0.20532227 10.97875977 C-0.22526749 12.03978409 -0.24521271 13.10080841 -0.26576233 14.19398499 C-0.28247482 15.348134 -0.29918732 16.50228302 -0.31640625 17.69140625 C-0.33718735 18.86638168 -0.35796844 20.04135712 -0.37937927 21.25193787 C-0.44500124 25.02206324 -0.5038183 28.79226082 -0.5625 32.5625 C-0.6056732 35.11133573 -0.64928708 37.66016403 -0.69335938 40.20898438 C-0.80069549 46.4725814 -0.90192691 52.73625136 -1 59 C5.93 59 12.86 59 20 59 C20 60.65 20 62.3 20 64 C13.07 64 6.14 64 -1 64 C-0.95942671 72.62462253 -0.90197847 81.24865265 -0.81609726 89.87292671 C-0.77685217 93.87900378 -0.74455274 97.8848686 -0.72900391 101.89111328 C-0.71368378 105.76880533 -0.67897393 109.6459129 -0.63169098 113.52334213 C-0.61703332 114.99099475 -0.60896813 116.45873089 -0.60811615 117.92645645 C-0.59387095 130.1797729 0.54455986 141.86269625 8 152 C15.88620563 159.5357076 23.9595509 161.06823535 34.5234375 161.2109375 C35.9713655 161.23900461 37.41928202 161.26766907 38.8671875 161.296875 C41.12043953 161.33803924 43.3734768 161.37498217 45.62695312 161.40136719 C61.10445671 161.59771347 61.10445671 161.59771347 68 165 C68.0625 167.25 68.0625 167.25 67 170 C60.80413813 174.12489907 54.3096422 174.67424008 47.0625 174.5625 C46.0612207 174.55299316 45.05994141 174.54348633 44.02832031 174.53369141 C27.29333845 174.07341289 11.292039 168.81790992 -1.0625 157.19140625 C-10.80087263 146.1768356 -11.44243162 131.55887691 -11.29296875 117.61328125 C-11.28736052 116.05958978 -11.28309624 114.50589293 -11.28010559 112.95219421 C-11.26875317 108.8997586 -11.23937113 104.84765517 -11.20599365 100.79534912 C-11.17508334 96.64551281 -11.16155586 92.49562184 -11.14648438 88.34570312 C-11.11449012 80.23030072 -11.06180316 72.11523019 -11 64 C-15.29 64 -19.58 64 -24 64 C-24 62.02 -24 60.04 -24 58 C-20.04 58 -16.08 58 -12 58 C-12.33 45.46 -12.66 32.92 -13 20 C-13.99 20.66 -14.98 21.32 -16 22 C-16.66 21.01 -17.32 20.02 -18 19 C-17.50371094 18.5153125 -17.00742187 18.030625 -16.49609375 17.53125 C-12.32663238 13.41717047 -8.3469873 9.21630579 -4.54296875 4.76171875 C-3.08919634 3.10184189 -1.57858414 1.54066019 0 0 Z " fill="#C09F5E" transform="translate(509,37)"/>
<path d="M0 0 C6.991875 -0.12375 6.991875 -0.12375 14.125 -0.25 C15.58437988 -0.28641602 17.04375977 -0.32283203 18.54736328 -0.36035156 C19.70993652 -0.3703418 20.87250977 -0.38033203 22.0703125 -0.390625 C23.84559326 -0.4220459 23.84559326 -0.4220459 25.65673828 -0.45410156 C30.86715873 0.25360853 33.9137352 2.79939154 37.375 6.625 C39.57535013 11.19495797 39.81089533 15.01299372 39 20 C36.96042395 24.00631009 34.77690791 26.57198777 31 29 C31.6103639 32.59909772 32.5916051 35.67639922 34.06640625 39.01171875 C34.46923828 39.93404297 34.87207031 40.85636719 35.28710938 41.80664062 C35.70798828 42.75732422 36.12886719 43.70800781 36.5625 44.6875 C37.40039792 46.58580288 38.23519696 48.48547761 39.06640625 50.38671875 C39.43709229 51.22420654 39.80777832 52.06169434 40.18969727 52.92456055 C41 55 41 55 41 57 C38.69 57 36.38 57 34 57 C30.22824323 49.57686168 26.62813212 42.10633957 23.19921875 34.51953125 C22.22755034 32.11602367 22.22755034 32.11602367 21 31 C18.65012738 30.76472227 16.29443961 30.58613583 13.9375 30.4375 C11.648125 30.293125 9.35875 30.14875 7 30 C7 38.91 7 47.82 7 57 C4.69 57 2.38 57 0 57 C0 38.19 0 19.38 0 0 Z " fill="#C19F5E" transform="translate(134,270)"/>
<path d="M0 0 C3.12404388 2.41749737 4.59819865 5.24334145 5.16577148 9.13061523 C5.19774686 12.35484288 5.21956775 15.57638996 5.19921875 18.80078125 C5.22918945 20.48010742 5.22918945 20.48010742 5.25976562 22.19335938 C5.25601445 28.51409698 5.14685188 32.6377858 0.76171875 37.36328125 C-4.84906479 40.79845485 -10.75390163 41.51523408 -17.23828125 40.36328125 C-21.39718768 38.34439463 -24.31065983 35.81037067 -26.80078125 31.92578125 C-27.6744581 26.80853116 -26.95368726 23.45743162 -24.11328125 19.11328125 C-18.81634165 14.04664338 -14.94170229 13.2009845 -7.80078125 13.17578125 C-5.94617707 13.2235686 -4.09168037 13.28111085 -2.23828125 13.36328125 C-2.83689867 11.01156994 -3.50752477 8.67734345 -4.23828125 6.36328125 C-7.43566787 4.76458794 -10.76844825 4.8524263 -14.23828125 5.36328125 C-17.20559523 7.19985114 -17.20559523 7.19985114 -19.23828125 9.36328125 C-21.71328125 8.37328125 -21.71328125 8.37328125 -24.23828125 7.36328125 C-24.23828125 4.36328125 -24.23828125 4.36328125 -22.05078125 1.80078125 C-15.109193 -4.2152619 -7.88569843 -3.88686555 0 0 Z " fill="#BE9E5E" transform="translate(312.23828125,286.63671875)"/>
<path d="M0 0 C3.08939301 2.39068329 4.59469695 5.20526346 5.14990234 9.0546875 C5.15328613 10.00214844 5.15666992 10.94960938 5.16015625 11.92578125 C5.16595703 13.49199219 5.16595703 13.49199219 5.171875 15.08984375 C5.16027344 16.17007812 5.14867187 17.2503125 5.13671875 18.36328125 C5.14832031 19.44351562 5.15992188 20.52375 5.171875 21.63671875 C5.16800781 22.68085938 5.16414063 23.725 5.16015625 24.80078125 C5.15677246 25.74824219 5.15338867 26.69570313 5.14990234 27.671875 C4.51222054 32.0931355 2.53099849 34.67092948 -0.73828125 37.61328125 C-5.80030205 41.15669581 -11.26468796 40.98713291 -17.23828125 40.36328125 C-21.16764738 38.39859819 -24.1261495 36.25405027 -26.23828125 32.36328125 C-27.27517803 28.36382223 -27.49581851 26.09297015 -26.11328125 22.17578125 C-22.78964871 17.19033244 -19.07404159 14.66011688 -13.23828125 13.36328125 C-9.56469027 13.21106063 -5.91243045 13.24560387 -2.23828125 13.36328125 C-3.00858247 9.87518934 -3.00858247 9.87518934 -4.23828125 6.36328125 C-7.84400829 5.16137224 -10.44852475 5.0365781 -14.23828125 5.36328125 C-17.14637668 7.22044312 -17.14637668 7.22044312 -19.23828125 9.36328125 C-24.11328125 7.61328125 -24.11328125 7.61328125 -25.23828125 5.36328125 C-18.95977712 -3.92890486 -9.37397506 -4.62043801 0 0 Z " fill="#BE9E5E" transform="translate(417.23828125,286.63671875)"/>
<path d="M0 0 C3.09209475 2.03797154 4.8616556 3.61684025 6.75 6.8125 C7.30102344 10.17986548 7.50823563 12.4998233 5.76171875 15.5234375 C3.4329713 18.47943271 1.27620658 20.5655684 -2.25 21.8125 C-5.17171464 22.04851906 -8.07131595 22.00063913 -11 21.9375 C-11.79277344 21.92847656 -12.58554688 21.91945313 -13.40234375 21.91015625 C-15.35169281 21.88667012 -17.30088575 21.85080137 -19.25 21.8125 C-16.97774236 27.66470989 -16.97774236 27.66470989 -13.5625 32.875 C-9.83313666 34.38690406 -6.20298456 34.50155235 -2.25 33.8125 C0.31990998 31.99985352 0.31990998 31.99985352 1.75 29.8125 C3.4 30.4725 5.05 31.1325 6.75 31.8125 C6.75 33.1325 6.75 34.4525 6.75 35.8125 C0.96626803 41.21903206 -2.36789673 42.29863781 -10.1328125 42.21484375 C-15.0625889 41.57854429 -18.01716438 39.51273354 -21.25 35.8125 C-25.10037138 29.85172099 -26.94244481 23.94715451 -26.25 16.8125 C-24.86310786 10.68366045 -22.88742478 5.27525531 -17.49609375 1.625 C-11.53168562 -1.73654509 -6.57117516 -2.40100631 0 0 Z " fill="#BD9D5D" transform="translate(209.25,285.1875)"/>
<path d="M0 0 C2.55835579 1.70557053 4.57576361 3.46431325 6.625 5.75 C5.66747992 8.22359354 5.13003355 9.48064878 2.75 10.75 C2.04875 10.75 1.3475 10.75 0.625 10.75 C0.068125 10.110625 -0.48875 9.47125 -1.0625 8.8125 C-4.18082495 6.03129126 -6.31107433 6.38419504 -10.3515625 6.51171875 C-12.44139997 6.64172535 -12.44139997 6.64172535 -14.375 7.75 C-14.375 9.4 -14.375 11.05 -14.375 12.75 C-10.55039512 14.45886601 -6.82927263 15.93358439 -2.8125 17.125 C1.68581868 18.61675013 4.41456986 20.21852684 7.625 23.75 C9.39386118 28.95831346 8.40462803 32.215502 6.12109375 36.953125 C3.21036935 40.4490342 -0.34925621 41.5857858 -4.7421875 42.2890625 C-15.3759837 42.54957867 -15.3759837 42.54957867 -20.25 38.25 C-21.3262756 37.11518222 -22.38225038 35.95856475 -23.375 34.75 C-21.609375 30.875 -21.609375 30.875 -19.5 29.75 C-18.79875 29.75 -18.0975 29.75 -17.375 29.75 C-16.6015625 30.7090625 -16.6015625 30.7090625 -15.8125 31.6875 C-12.32167394 34.64127589 -9.37581308 34.18962118 -4.93359375 34.18359375 C-2.3736385 33.92692484 -2.3736385 33.92692484 -0.53515625 32.53515625 C0.99508213 30.18054703 0.8481218 28.50183554 0.625 25.75 C-0.1484375 25.57984375 -0.921875 25.4096875 -1.71875 25.234375 C-17.40273498 21.58513097 -17.40273498 21.58513097 -21.375 15.875 C-22.47522634 12.43679269 -22.97032568 10.32195406 -22.375 6.75 C-16.64879366 -1.52118693 -9.44994582 -3.49997993 0 0 Z " fill="#BD9D5D" transform="translate(245.375,285.25)"/>
<path d="M0 0 C3.83084349 2.61193874 6.65161815 5.67823629 8.75 9.875 C8.83639869 12.28338678 8.86567764 14.66233881 8.84765625 17.0703125 C8.8462413 17.77775604 8.84482635 18.48519958 8.84336853 19.21408081 C8.837766 21.47609669 8.82521318 23.73801398 8.8125 26 C8.80748532 27.53255065 8.80292236 29.06510286 8.79882812 30.59765625 C8.78779577 34.35680888 8.77052952 38.11588772 8.75 41.875 C6.44 41.875 4.13 41.875 1.75 41.875 C1.7406543 40.95686523 1.73130859 40.03873047 1.72167969 39.09277344 C1.67760069 35.67794722 1.61596268 32.26436892 1.54248047 28.85009766 C1.51429912 27.37397804 1.49307034 25.89770831 1.47900391 24.42138672 C1.45753302 22.29576943 1.41086957 20.17195121 1.359375 18.046875 C1.33842773 16.7690918 1.31748047 15.49130859 1.29589844 14.17480469 C0.66314425 10.34998108 -0.14899885 9.13571192 -3.25 6.875 C-6.70728358 6.12488633 -6.70728358 6.12488633 -10.25 6.875 C-13.59202508 9.48836553 -15.07413573 10.98916758 -15.90942383 15.1965332 C-15.92513428 16.42718506 -15.94084473 17.65783691 -15.95703125 18.92578125 C-15.97215256 19.58458786 -15.98727386 20.24339447 -16.00285339 20.92216492 C-16.04558566 23.010962 -16.05455265 25.0983102 -16.0625 27.1875 C-16.08565614 28.61006417 -16.11102383 30.03259417 -16.13867188 31.45507812 C-16.20137616 34.92835804 -16.23382784 38.40115613 -16.25 41.875 C-18.56 41.875 -20.87 41.875 -23.25 41.875 C-23.32480519 37.89152774 -23.37890718 33.90833406 -23.41479492 29.92431641 C-23.43709408 27.91163752 -23.47523653 25.89915416 -23.51367188 23.88671875 C-23.62611613 8.96911368 -23.62611613 8.96911368 -18.5234375 2.78125 C-12.2878421 -1.83770955 -7.34250824 -2.54163747 0 0 Z " fill="#BD9C5D" transform="translate(453.25,285.125)"/>
<path d="M0 0 C2.31 0 4.62 0 7 0 C7.01458252 0.85231201 7.02916504 1.70462402 7.04418945 2.58276367 C7.10543285 5.76071175 7.17962029 8.93802546 7.26245117 12.11547852 C7.29559806 13.48775958 7.32366171 14.86017362 7.34643555 16.23266602 C7.38016766 18.21137766 7.4340149 20.18971376 7.48828125 22.16796875 C7.51446533 23.35672607 7.54064941 24.5454834 7.56762695 25.77026367 C8.03531893 29.263825 8.90543572 31.19216035 11 34 C14.09173752 35.54586876 16.59429552 35.29359521 20 35 C23.12018477 32.75976024 23.9133349 31.52386652 24.54589844 27.70019531 C24.5668457 26.42241211 24.58779297 25.14462891 24.609375 23.828125 C24.62591125 23.1457074 24.64244751 22.46328979 24.65948486 21.76019287 C24.70789839 19.59003646 24.72931865 17.42058028 24.75 15.25 C24.77816562 13.77470448 24.80809389 12.29944149 24.83984375 10.82421875 C24.91365225 7.21629802 24.96326894 3.60851028 25 0 C27.31 0 29.62 0 32 0 C32.09965569 4.26832981 32.17183391 8.53602469 32.21972656 12.80517578 C32.23971295 14.25418917 32.26691197 15.70312325 32.30175781 17.15185547 C32.65573522 32.2583619 32.65573522 32.2583619 28 39 C23.62932225 42.84083742 19.19049987 43.71766109 13.4296875 43.4375 C9.27476958 42.68934758 6.84987888 41.04829928 4 38 C-1.0034997 30.57504839 -0.47113123 22.56587051 -0.25 13.9375 C-0.22989291 12.58140675 -0.21164961 11.22528453 -0.1953125 9.86914062 C-0.14847313 6.57867514 -0.08288862 3.28972165 0 0 Z " fill="#BB9B5D" transform="translate(326,284)"/>
<path d="M0 0 C2.31 0 4.62 0 7 0 C7 4.95 7 9.9 7 15 C10.63 15 14.26 15 18 15 C18 16.98 18 18.96 18 21 C14.37 21 10.74 21 7 21 C7.0870652 24.56366857 7.19396885 28.1248562 7.3125 31.6875 C7.33505859 32.69490234 7.35761719 33.70230469 7.38085938 34.74023438 C7.50852266 41.92410162 7.50852266 41.92410162 11 48 C14.57996259 49.36900354 14.57996259 49.36900354 18 50 C18 52.31 18 54.62 18 57 C12.25248378 57.71843953 9.4477985 56.44241492 4.796875 53.09375 C-0.28324144 47.17430998 -0.42046906 40.21755243 -0.29296875 32.8125 C-0.28872391 31.86938965 -0.28447906 30.9262793 -0.28010559 29.95458984 C-0.2634357 26.96942482 -0.22580575 23.98495782 -0.1875 21 C-0.17243804 18.96485356 -0.15875229 16.92969645 -0.14648438 14.89453125 C-0.11357055 9.9294223 -0.06186999 4.96482913 0 0 Z " fill="#BF9E5E" transform="translate(261,270)"/>
<path d="M0 0 C1.98 0 3.96 0 6 0 C6 4.95 6 9.9 6 15 C9.63 15 13.26 15 17 15 C17 16.98 17 18.96 17 21 C12.05 21.495 12.05 21.495 7 22 C6.91892087 25.39631472 6.85946056 28.79068616 6.8125 32.1875 C6.78736328 33.14720703 6.76222656 34.10691406 6.73632812 35.09570312 C6.58327762 42.0842155 6.58327762 42.0842155 10 48 C11.76580116 49.19873855 11.76580116 49.19873855 13.6875 49.8125 C14.780625 50.204375 15.87375 50.59625 17 51 C17 52.98 17 54.96 17 57 C11.62525594 57.54844327 8.82129175 56.71335345 4.578125 53.6796875 C-0.57332676 48.19670667 -0.40524154 42.42288626 -0.29296875 35.3515625 C-0.28872391 34.33903412 -0.28447906 33.32650574 -0.28010559 32.28329468 C-0.26337302 29.06358752 -0.22573026 25.84451656 -0.1875 22.625 C-0.17244618 20.43620698 -0.158759 18.24740411 -0.14648438 16.05859375 C-0.11348732 10.70551374 -0.06334196 5.35280234 0 0 Z " fill="#C3A15F" transform="translate(473,270)"/>
<path d="M0 0 C3.04317386 -0.13558695 6.08025562 -0.23437239 9.125 -0.3125 C10.40890625 -0.3753418 10.40890625 -0.3753418 11.71875 -0.43945312 C16.03266032 -0.52241294 19.08160806 -0.44148283 22.5703125 2.26953125 C25.824361 5.92641212 25.824361 5.92641212 25.75 9 C25.76546875 9.639375 25.7809375 10.27875 25.796875 10.9375 C24.47191942 14.36679679 22.18712735 16.3572423 19 18 C15.67770467 18.58011729 12.48429602 18.47692337 9.125 18.3125 C8.24585938 18.28994141 7.36671875 18.26738281 6.4609375 18.24414062 C4.30654993 18.18559748 2.1530469 18.09592783 0 18 C0 12.06 0 6.12 0 0 Z " fill="#161A29" transform="translate(141,276)"/>
<path d="M0 0 C0 2.31 0 4.62 0 7 C-1.6396875 7.37125 -1.6396875 7.37125 -3.3125 7.75 C-7.26592899 9.09014542 -8.05316929 9.47518102 -10 13 C-10.50433771 16.28735828 -10.50433771 16.28735828 -10.51171875 19.953125 C-10.53864555 20.94345734 -10.53864555 20.94345734 -10.56611633 21.95379639 C-10.62008809 24.05246689 -10.65407043 26.15091177 -10.6875 28.25 C-10.72068495 29.67711464 -10.75517571 31.10419956 -10.79101562 32.53125 C-10.8758047 36.02061652 -10.94267888 39.51006191 -11 43 C-13.31 43 -15.62 43 -18 43 C-18.07480519 39.01652774 -18.12890718 35.03333406 -18.16479492 31.04931641 C-18.18709408 29.03663752 -18.22523653 27.02415416 -18.26367188 25.01171875 C-18.37731319 9.93530407 -18.37731319 9.93530407 -13.203125 3.90625 C-8.5522015 0.55758508 -5.74751622 -0.71843953 0 0 Z " fill="#BD9D5D" transform="translate(387,284)"/>
<path d="M0 0 C1.74216797 0.05414063 1.74216797 0.05414063 3.51953125 0.109375 C4.39996094 0.15578125 5.28039062 0.2021875 6.1875 0.25 C6.78451493 7.29477612 6.78451493 7.29477612 4.3125 11.25 C-0.058916 14.04770624 -3.75400622 14.16972614 -8.8125 13.25 C-11.5 11.5625 -11.5 11.5625 -12.8125 9.25 C-12.875 6.75 -12.875 6.75 -11.8125 4.25 C-7.9339902 0.3714902 -5.41716731 -0.21887545 0 0 Z " fill="#191E2B" transform="translate(304.8125,306.75)"/>
<path d="M0 0 C1.60294922 0.04060547 1.60294922 0.04060547 3.23828125 0.08203125 C4.04652344 0.11683594 4.85476563 0.15164063 5.6875 0.1875 C5.74172947 1.6245809 5.78039723 3.06225462 5.8125 4.5 C5.83570313 5.30050781 5.85890625 6.10101563 5.8828125 6.92578125 C5.6875 9.1875 5.6875 9.1875 3.6875 12.1875 C-0.36568692 13.53856231 -4.0750086 13.72959349 -8.3125 13.1875 C-10.9375 11.5625 -10.9375 11.5625 -12.3125 9.1875 C-12.375 6.125 -12.375 6.125 -11.3125 3.1875 C-7.51003804 0.26042497 -4.73310435 -0.15603641 0 0 Z " fill="#151C2B" transform="translate(409.3125,306.8125)"/>
<path d="M0 0 C0.99 0.66 1.98 1.32 3 2 C2.6875 4.375 2.6875 4.375 2 7 C-1.63195496 9.42130331 -3.38349348 9.21022785 -7.6875 9.125 C-8.86699219 9.10695313 -10.04648438 9.08890625 -11.26171875 9.0703125 C-12.16535156 9.04710937 -13.06898438 9.02390625 -14 9 C-13.47699306 5.68028226 -13.2293187 4.2571149 -10.9375 1.6875 C-6.89932651 -0.63230179 -4.62174501 -0.44726565 0 0 Z " fill="#131828" transform="translate(206,291)"/>
</svg>
